<?xml version="1.0" standalone="no"?>
<!DOCTYPE svg PUBLIC "-//W3C//DTD SVG 20010904//EN"
 "http://www.w3.org/TR/2001/REC-SVG-20010904/DTD/svg10.dtd">
<svg version="1.0" xmlns="http://www.w3.org/2000/svg"
 width="1080.000000pt" height="1080.000000pt" viewBox="0 0 1080.000000 1080.000000"
 preserveAspectRatio="xMidYMid meet">
<metadata>
Created by potrace 1.11, written by Peter Selinger 2001-2013
</metadata>
<g transform="translate(0.000000,1080.000000) scale(0.100000,-0.100000)"
fill="#000000" stroke="none">
<path d="M7285 10005 c-129 -32 -303 -111 -327 -149 -4 -6 -8 -7 -8 -2 0 5 -8
-1 -19 -12 -10 -12 -21 -22 -25 -22 -7 0 -110 -103 -139 -138 -95 -120 -168
-278 -193 -424 -10 -54 -11 -259 -2 -313 7 -47 32 -137 48 -180 24 -64 84
-175 93 -175 6 0 8 -3 4 -6 -8 -8 53 -85 121 -152 186 -184 410 -272 673 -267
68 1 138 5 154 9 395 85 667 359 751 756 10 44 10 285 1 325 -4 17 -9 42 -12
57 -12 63 -70 198 -118 276 -64 105 -236 282 -274 282 -6 0 -16 6 -20 13 -19
30 -231 116 -328 133 -16 3 -88 7 -160 8 -108 3 -145 0 -220 -19z"/>
<path d="M9577 9623 c-10 -9 -8 -97 3 -173 30 -204 29 -490 -1 -680 -6 -36
-13 -78 -16 -95 -14 -93 -94 -355 -116 -382 -5 -7 -7 -13 -3 -13 12 0 -121
-250 -182 -340 -235 -347 -575 -613 -958 -749 -124 -44 -213 -68 -288 -77 -24
-2 -55 -7 -67 -10 -30 -6 -174 -6 -214 1 -32 5 -85 14 -125 21 -138 25 -707
203 -850 266 -14 6 -29 12 -35 14 -13 3 -288 110 -329 128 -17 8 -105 44 -196
81 -174 71 -557 234 -625 265 -22 10 -62 28 -90 40 -92 41 -160 71 -205 92
-25 11 -83 37 -130 58 -47 21 -116 52 -155 70 -302 138 -565 260 -645 297
-280 132 -548 256 -570 264 l-25 9 25 -18 c141 -100 421 -300 442 -316 15 -12
46 -35 70 -52 251 -181 649 -487 928 -713 85 -69 163 -133 174 -141 10 -8 23
-19 30 -25 10 -9 96 -82 166 -141 566 -479 1124 -1042 1503 -1514 154 -192
401 -548 476 -685 12 -22 31 -56 43 -75 44 -74 158 -311 206 -431 46 -112 123
-353 136 -419 3 -14 11 -61 20 -105 26 -139 28 -166 31 -340 4 -239 -19 -396
-87 -605 -152 -469 -507 -892 -1071 -1274 -54 -36 -100 -66 -104 -66 -4 0 -14
-6 -22 -14 -29 -26 -284 -168 -451 -252 -263 -131 -454 -214 -774 -333 -156
-59 -562 -197 -606 -206 -8 -2 -94 -27 -190 -55 -96 -29 -182 -54 -190 -55 -8
-2 -123 -31 -255 -65 -353 -90 -984 -225 -1245 -266 -19 -3 -71 -12 -115 -19
-44 -8 -96 -17 -115 -20 -19 -3 -42 -8 -50 -10 -8 -2 -37 -7 -65 -10 -27 -4
-59 -8 -70 -10 -147 -24 -218 -35 -260 -40 -27 -3 -90 -12 -140 -20 -49 -8
-115 -17 -145 -20 -30 -3 -62 -8 -70 -10 -8 -2 -44 -7 -80 -10 -75 -8 -111
-12 -160 -19 -39 -6 -96 -12 -185 -21 -33 -3 -71 -8 -85 -10 -14 -2 -56 -7
-95 -10 -38 -4 -81 -8 -95 -10 -14 -2 -61 -7 -105 -10 -44 -3 -96 -8 -115 -10
-33 -4 -70 -7 -218 -20 -31 -2 -84 -7 -118 -10 -113 -10 -331 -24 -462 -30
-34 -1 -65 -5 -68 -7 -2 -3 26 -9 63 -12 37 -4 84 -9 103 -12 19 -2 105 -13
190 -24 154 -19 200 -24 315 -35 33 -3 74 -7 90 -10 17 -2 57 -6 90 -10 33 -3
78 -8 100 -10 22 -3 72 -7 110 -10 39 -3 90 -7 115 -10 92 -10 226 -20 365
-30 50 -3 113 -8 140 -10 50 -4 185 -12 341 -20 528 -27 1465 -27 1889 0 28 2
95 6 150 9 55 4 125 9 155 11 30 3 81 8 113 10 103 9 182 16 207 20 14 2 54 6
90 10 36 4 76 8 90 10 14 2 54 6 90 10 36 3 72 8 80 10 16 4 64 11 140 20 40
5 70 9 135 21 11 2 40 7 65 10 25 3 54 8 65 10 11 2 47 9 80 15 33 5 105 19
160 30 55 11 111 22 125 24 65 12 264 58 440 101 8 2 80 22 160 44 80 22 152
42 160 44 118 30 625 212 757 272 28 13 54 24 57 24 9 0 129 56 301 140 160
79 383 202 483 266 28 19 78 51 110 71 159 103 438 313 587 443 95 84 401 396
475 486 103 124 128 155 148 183 9 13 26 35 38 50 11 14 45 62 75 106 30 44
56 82 59 85 8 7 110 171 168 270 72 123 209 404 271 555 152 368 268 778 336
1185 21 125 22 132 35 226 10 78 13 103 25 229 3 33 8 76 10 95 26 218 26
1005 0 1240 -2 19 -6 73 -10 120 -3 47 -8 96 -10 110 -2 14 -7 52 -10 85 -13
120 -20 180 -30 235 -2 14 -7 45 -10 70 -3 25 -13 86 -21 135 -8 50 -17 104
-20 120 -2 17 -9 50 -14 75 -5 25 -11 59 -14 75 -2 17 -9 50 -14 75 -6 25 -13
56 -15 70 -10 53 -47 219 -72 320 -14 58 -28 112 -30 120 -11 49 -58 220 -85
310 -17 58 -37 125 -44 150 -16 56 -36 118 -47 145 -4 11 -22 63 -40 115 -105
314 -280 708 -378 850 -52 75 -86 102 -104 83z"/>
</g>
</svg>
